<svg width="24" height="24" viewBox="0 0 24 24" fill="none" xmlns="http://www.w3.org/2000/svg">
<path fill-rule="evenodd" clip-rule="evenodd" d="M19.9948 11.8521C20.0606 11.1617 19.4936 10.6227 18.8345 10.6521C18.171 10.6816 17.6691 11.278 17.5667 11.9681C17.4247 12.9248 17.0732 13.844 16.531 14.658C15.7533 15.8256 14.6236 16.716 13.3054 17.2005C11.9872 17.6849 10.5487 17.7384 9.19804 17.353C7.84737 16.9677 6.65452 16.1636 5.79201 15.0569C4.9295 13.9503 4.44204 12.5985 4.40013 11.1971C4.35822 9.79573 4.76404 8.41736 5.55888 7.26135C6.35372 6.10534 7.4964 5.23163 8.82163 4.76658C9.79526 4.42492 10.8303 4.31684 11.8443 4.4442C12.4579 4.52126 13.0798 4.1817 13.2671 3.56241C13.4623 2.91719 13.1121 2.2225 12.476 2.11846C10.9896 1.87535 9.45919 2.00678 8.02648 2.50954C6.2214 3.14298 4.66498 4.33305 3.58233 5.90763C2.49968 7.48221 1.94693 9.35968 2.00402 11.2685C2.0611 13.1773 2.72506 15.0186 3.89988 16.5259C5.07469 18.0332 6.69946 19.1285 8.53918 19.6534C10.3789 20.1783 12.3382 20.1055 14.1338 19.4456C15.9293 18.7857 17.468 17.5728 18.5273 15.9825C19.3535 14.7421 19.8547 13.3222 19.9948 11.8521Z" fill="#0A0B0D"/>
<path fill-rule="evenodd" clip-rule="evenodd" d="M15.3874 16.3367C15.7576 15.9296 16.3686 15.9163 16.7522 16.3071L20.7277 20.3578C21.1113 20.7486 21.1222 21.3955 20.752 21.8027C20.3819 22.2099 19.7709 22.2232 19.3873 21.8323L15.4117 17.7817C15.0282 17.3909 15.0173 16.7439 15.3874 16.3367Z" fill="#0A0B0D"/>
<path fill-rule="evenodd" clip-rule="evenodd" d="M12.7233 6C13.1375 6 13.4733 6.33579 13.4733 6.75V6.84849L14.7144 6.84849C15.1287 6.84849 15.4644 7.18427 15.4644 7.59849C15.4644 8.0127 15.1287 8.34848 14.7144 8.34848H13.4733V8.44697C13.4733 8.86118 13.1375 9.19697 12.7233 9.19697C12.3091 9.19697 11.9733 8.86118 11.9733 8.44697V6.75C11.9733 6.33579 12.3091 6 12.7233 6ZM6 7.59848C6 7.18427 6.33579 6.84848 6.75 6.84848H10.1633C10.5775 6.84848 10.9133 7.18427 10.9133 7.59848C10.9133 8.0127 10.5775 8.34848 10.1633 8.34848H6.75C6.33579 8.34848 6 8.0127 6 7.59848ZM10.1633 9.0303C10.5775 9.0303 10.9133 9.36609 10.9133 9.7803V11.4773C10.9133 11.8915 10.5775 12.2273 10.1633 12.2273C9.74912 12.2273 9.41333 11.8915 9.41333 11.4773V11.3788L6.75003 11.3789C6.33581 11.3789 6.00002 11.0432 6 10.6289C5.99998 10.2147 6.33576 9.87893 6.74997 9.87891L9.41333 9.87882V9.7803C9.41333 9.36609 9.74912 9.0303 10.1633 9.0303ZM11.9733 10.6289C11.9733 10.2147 12.3091 9.87891 12.7233 9.87891H14.7144C15.1287 9.87891 15.4644 10.2147 15.4644 10.6289C15.4644 11.0431 15.1287 11.3789 14.7144 11.3789H12.7233C12.3091 11.3789 11.9733 11.0431 11.9733 10.6289ZM8.70556 12.303C9.11977 12.303 9.45556 12.6388 9.45556 13.053V14.75C9.45556 15.1642 9.11977 15.5 8.70556 15.5C8.29134 15.5 7.95556 15.1642 7.95556 14.75V14.6515H6.78556C6.37134 14.6515 6.03556 14.3157 6.03556 13.9015C6.03556 13.4873 6.37134 13.1515 6.78556 13.1515H7.95556V13.053C7.95556 12.6388 8.29134 12.303 8.70556 12.303ZM10.0178 13.9015C10.0178 13.4873 10.3536 13.1515 10.7678 13.1515L14.75 13.1515C15.1642 13.1515 15.5 13.4873 15.5 13.9015C15.5 14.3157 15.1642 14.6515 14.75 14.6515H10.7678C10.3536 14.6515 10.0178 14.3157 10.0178 13.9015Z" fill="#0A0B0D"/>
</svg>
