<svg xmlns="http://www.w3.org/2000/svg" version="1.1" width="3300" height="2000"><g id="Notes"><style>
    text {
      font-family: monospace;
      text-anchor: middle;
    }
    text.emphasis {
      font-weight:bold;
    }
    text.lanchor {
      text-anchor: start;
    }
  </style><rect height="2200" id="artboard" fill="white" width="3300" x="0" y="0"/><line id="" style="fill:none;stroke:black;stroke-width:0.5;" x1="263" x2="3036" y1="292" y2="292"/><text class="lanchor emphasis" transform="matrix(1 0 0 1 263 322)">Weight/Scale Variations</text><text transform="matrix(1 0 0 1 559.711 322)">Ultralight</text><text transform="matrix(1 0 0 1 856.422 322)">Thin</text><text transform="matrix(1 0 0 1 1153.13 322)">Light</text><text transform="matrix(1 0 0 1 1449.84 322)">Regular</text><text transform="matrix(1 0 0 1 1746.56 322)">Medium</text><text transform="matrix(1 0 0 1 2043.27 322)">Semibold</text><text transform="matrix(1 0 0 1 2339.98 322)">Bold</text><text transform="matrix(1 0 0 1 2636.69 322)">Heavy</text><text transform="matrix(1 0 0 1 2933.4 322)">Black</text><text id="template-version" style="text-anchor: end;" transform="matrix(1 0 0 1 3036 1933)">Template v.1.0</text><text class="lanchor" transform="matrix(1 0 0 1 263 726)">Small</text><text class="lanchor" transform="matrix(1 0 0 1 263 1156)">Medium</text><text class="lanchor" transform="matrix(1 0 0 1 263 1586)">Large</text></g><g id="Guides"><g id="H-reference" style="fill:#27AAE1;stroke:none;" transform="matrix(1 0 0 1 339 696)"><path d="M 54.9316 0 L 57.666 0 L 30.5664 -70.459 L 28.0762 -70.459 L 0.976562 0 L 3.66211 0 L 12.9395 -24.4629 L 45.7031 -24.4629 Z M 29.1992 -67.0898 L 29.4434 -67.0898 L 44.8242 -26.709 L 13.8184 -26.709 Z"/></g><line id="Baseline-S" style="fill:none;stroke:#27AAE1;opacity:1;stroke-width:0.577;" x1="263" x2="3036" y1="696" y2="696"/><line id="Capline-S" style="fill:none;stroke:#27AAE1;opacity:1;stroke-width:0.577;" x1="263" x2="3036" y1="625.541" y2="625.541"/><g id="H-reference" style="fill:#27AAE1;stroke:none;" transform="matrix(1 0 0 1 339 1126)"><path d="M 54.9316 0 L 57.666 0 L 30.5664 -70.459 L 28.0762 -70.459 L 0.976562 0 L 3.66211 0 L 12.9395 -24.4629 L 45.7031 -24.4629 Z M 29.1992 -67.0898 L 29.4434 -67.0898 L 44.8242 -26.709 L 13.8184 -26.709 Z"/></g><line id="Baseline-M" style="fill:none;stroke:#27AAE1;opacity:1;stroke-width:0.577;" x1="263" x2="3036" y1="1126" y2="1126"/><line id="Capline-M" style="fill:none;stroke:#27AAE1;opacity:1;stroke-width:0.577;" x1="263" x2="3036" y1="1055.54" y2="1055.54"/><g id="H-reference" style="fill:#27AAE1;stroke:none;" transform="matrix(1 0 0 1 339 1556)"><path d="M 54.9316 0 L 57.666 0 L 30.5664 -70.459 L 28.0762 -70.459 L 0.976562 0 L 3.66211 0 L 12.9395 -24.4629 L 45.7031 -24.4629 Z M 29.1992 -67.0898 L 29.4434 -67.0898 L 44.8242 -26.709 L 13.8184 -26.709 Z"/></g><line id="Baseline-L" style="fill:none;stroke:#27AAE1;opacity:1;stroke-width:0.577;" x1="263" x2="3036" y1="1556" y2="1556"/><line id="Capline-L" style="fill:none;stroke:#27AAE1;opacity:1;stroke-width:0.577;" x1="263" x2="3036" y1="1485.54" y2="1485.54"/><rect height="119.336" id="left-margin" style="fill:darkred;stroke:none;opacity:0.4;" width="12.4512" x="1394.06" y="1030.79"/><rect height="119.336" id="right-margin" style="fill:darkgreen;stroke:none;opacity:0.4;" width="12.4512" x="1502.5112" y="1030.79"/><rect x="1406.5112" y="1045" width="96" height="96" fill="none" stroke="blue" stroke-dasharray="5"/><rect x="1394.06" y="1030.79" width="120.9024" height="119.336" fill="none" stroke="blue"/></g><g id="Symbols"><g id="Bold-L" transform="matrix(1 0 0 1 2266 1556)"><path d="M40.796 26.851 Q34.312 26.851 29.895 22.481 Q25.477 18.112 25.477 11.694 V-77.477 H23.704 Q20.519 -77.477 18.322 -79.683 Q16.125 -81.888 16.125 -85.084 Q16.125 -88.281 18.322 -90.458 Q20.519 -92.635 23.704 -92.635 H53.374 Q53.374 -95.86 55.571 -98.117 Q57.768 -100.375 60.953 -100.375 H93.686 Q96.871 -100.375 99.068 -98.087 Q101.265 -95.8 101.265 -92.635 H131.096 Q134.281 -92.635 136.478 -90.43 Q138.675 -88.225 138.675 -85.028 Q138.675 -81.831 136.478 -79.654 Q134.281 -77.477 131.096 -77.477 H129.322 V11.694 Q129.322 18.112 124.905 22.481 Q120.488 26.851 114.004 26.851 H40.796 Z M57.083 -0.884 H69.499 V-65.222 H57.083 V-0.884 Z M85.301 -0.884 H97.879 V-65.222 H85.301 V-0.884 Z"/></g><g id="Semibold-L" transform="matrix(1 0 0 1 1970.27 1556)"><path d="M41.357 25.099 Q35.957 25.099 32.224 21.393 Q28.492 17.687 28.492 12.325 V-78.038 H26.718 Q24.024 -78.038 22.178 -79.893 Q20.331 -81.748 20.331 -84.454 Q20.331 -87.16 22.178 -88.986 Q24.024 -90.812 26.718 -90.812 H54.566 Q54.566 -93.547 56.412 -95.418 Q58.258 -97.29 60.953 -97.29 H93.756 Q96.45 -97.29 98.297 -95.393 Q100.143 -93.495 100.143 -90.812 H128.082 Q130.776 -90.812 132.622 -88.958 Q134.469 -87.103 134.469 -84.397 Q134.469 -81.691 132.622 -79.865 Q130.776 -78.038 128.082 -78.038 H126.308 V12.325 Q126.308 17.687 122.576 21.393 Q118.843 25.099 113.443 25.099 H41.357 Z M57.994 -0.814 H69.218 V-65.152 H57.994 V-0.814 Z M85.582 -0.814 H96.897 V-65.152 H85.582 V-0.814 Z"/></g><g id="Medium-L" transform="matrix(1 0 0 1 1674.31 1556)"><path d="M41.778 23.784 Q37.191 23.784 33.972 20.577 Q30.753 17.369 30.753 12.798 V-78.459 H28.979 Q26.653 -78.459 25.07 -80.051 Q23.486 -81.642 23.486 -83.98 Q23.486 -86.318 25.07 -87.882 Q26.653 -89.445 28.979 -89.445 H55.46 Q55.46 -91.811 57.043 -93.394 Q58.627 -94.977 60.953 -94.977 H93.809 Q96.135 -94.977 97.718 -93.371 Q99.302 -91.766 99.302 -89.445 H125.821 Q128.147 -89.445 129.73 -87.853 Q131.314 -86.262 131.314 -83.924 Q131.314 -81.586 129.73 -80.023 Q128.147 -78.459 125.821 -78.459 H124.047 V12.798 Q124.047 17.369 120.828 20.577 Q117.609 23.784 113.022 23.784 H41.778 Z M58.677 -0.761 H69.008 V-65.1 H58.677 V-0.761 Z M85.792 -0.761 H96.161 V-65.1 H85.792 V-0.761 Z"/></g><g id="Regular-L" transform="matrix(1 0 0 1 1378.56 1556)"><path d="M42.086 22.82 Q38.095 22.82 35.253 19.978 Q32.411 17.136 32.411 13.145 V-78.767 H30.637 Q28.582 -78.767 27.191 -80.166 Q25.8 -81.565 25.8 -83.633 Q25.8 -85.701 27.191 -87.072 Q28.582 -88.442 30.637 -88.442 H56.115 Q56.115 -90.539 57.506 -91.909 Q58.897 -93.28 60.953 -93.28 H93.847 Q95.903 -93.28 97.294 -91.889 Q98.685 -90.498 98.685 -88.442 H124.163 Q126.218 -88.442 127.609 -87.044 Q129 -85.645 129 -83.577 Q129 -81.509 127.609 -80.138 Q126.218 -78.767 124.163 -78.767 H122.389 V13.145 Q122.389 17.136 119.547 19.978 Q116.705 22.82 112.714 22.82 H42.086 Z M59.179 -0.722 H68.854 V-65.061 H59.179 V-0.722 Z M85.946 -0.722 H95.621 V-65.061 H85.946 V-0.722 Z"/></g><g id="Light-L" transform="matrix(1 0 0 1 1082.77 1556)"><path d="M44.877 19.595 Q41.088 19.595 38.331 16.838 Q35.574 14.081 35.574 10.292 V-77.465 H32.684 Q31.129 -77.465 30.077 -78.526 Q29.025 -79.587 29.025 -81.156 Q29.025 -82.724 30.077 -83.754 Q31.129 -84.783 32.684 -84.783 H56.611 Q56.611 -86.693 57.941 -88.002 Q59.27 -89.311 61.139 -89.311 H93.661 Q95.53 -89.311 96.859 -87.981 Q98.189 -86.651 98.189 -84.783 H122.116 Q123.671 -84.783 124.723 -83.722 Q125.775 -82.661 125.775 -81.093 Q125.775 -79.524 124.723 -78.495 Q123.671 -77.465 122.116 -77.465 H119.226 V10.292 Q119.226 14.081 116.469 16.838 Q113.712 19.595 109.923 19.595 H44.877 Z M61.474 -1.343 H68.792 V-64.007 H61.474 V-1.343 Z M86.008 -1.343 H93.326 V-64.007 H86.008 V-1.343 Z"/></g><g id="Thin-L" transform="matrix(1 0 0 1 787.282 1556)"><path d="M47.668 16.37 Q44.08 16.37 41.409 13.699 Q38.737 11.027 38.737 7.439 V-76.163 H34.731 Q33.676 -76.163 32.963 -76.886 Q32.25 -77.609 32.25 -78.678 Q32.25 -79.747 32.963 -80.436 Q33.676 -81.124 34.731 -81.124 H57.107 Q57.107 -82.848 58.376 -84.095 Q59.644 -85.342 61.325 -85.342 H93.475 Q95.156 -85.342 96.424 -84.073 Q97.693 -82.805 97.693 -81.124 H120.069 Q121.124 -81.124 121.837 -80.401 Q122.55 -79.678 122.55 -78.609 Q122.55 -77.54 121.837 -76.851 Q121.124 -76.163 120.069 -76.163 H116.063 V7.439 Q116.063 11.027 113.391 13.699 Q110.72 16.37 107.132 16.37 H47.668 Z M63.768 -1.963 H68.73 V-62.953 H63.768 V-1.963 Z M86.07 -1.963 H91.032 V-62.953 H86.07 V-1.963 Z"/></g><g id="Ultralight-L" transform="matrix(1 0 0 1 491.205 1556)"><path d="M49.343 14.435 Q45.876 14.435 43.255 11.815 Q40.635 9.194 40.635 5.728 V-75.381 H35.959 Q35.205 -75.381 34.695 -75.902 Q34.185 -76.422 34.185 -77.192 Q34.185 -77.961 34.695 -78.445 Q35.205 -78.929 35.959 -78.929 H57.405 Q57.405 -80.541 58.637 -81.751 Q59.868 -82.96 61.436 -82.96 H93.364 Q94.932 -82.96 96.163 -81.728 Q97.395 -80.497 97.395 -78.929 H118.841 Q119.595 -78.929 120.105 -78.408 Q120.615 -77.888 120.615 -77.118 Q120.615 -76.349 120.105 -75.865 Q119.595 -75.381 118.841 -75.381 H114.165 V5.728 Q114.165 9.194 111.545 11.815 Q108.924 14.435 105.457 14.435 H49.343 Z M65.145 -2.335 H68.692 V-62.32 H65.145 V-2.335 Z M86.108 -2.335 H89.655 V-62.32 H86.108 V-2.335 Z"/></g><g id="Bold-M" transform="matrix(1 0 0 1 2281.8 1126)"><path d="M33.625 14.02 Q27 14.02 22.438 9.458 Q17.875 4.895 17.875 -1.73 V-63.855 Q14.625 -63.855 12.312 -66.167 Q10 -68.48 10 -71.73 Q10 -74.98 12.312 -77.292 Q14.625 -79.605 17.875 -79.605 H42.125 Q42.125 -82.855 44.438 -85.167 Q46.75 -87.48 50 -87.48 H69.75 Q73 -87.48 75.312 -85.167 Q77.625 -82.855 77.625 -79.605 H102.125 Q105.375 -79.605 107.688 -77.292 Q110 -74.98 110 -71.73 Q110 -68.48 107.688 -66.167 Q105.375 -63.855 102.125 -63.855 V-1.73 Q102.125 4.895 97.562 9.458 Q93 14.02 86.375 14.02 H33.625 Z M42.75 -10.355 H55.625 V-55.355 H42.75 V-10.355 Z M64.375 -10.355 H77.25 V-55.355 H64.375 V-10.355 Z"/></g><g id="Semibold-M" transform="matrix(1 0 0 1 1985.97 1126)"><path d="M34.223 12.172 Q28.685 12.172 24.829 8.316 Q20.973 4.46 20.973 -1.078 V-64.453 Q18.212 -64.453 16.28 -66.385 Q14.348 -68.317 14.348 -71.078 Q14.348 -73.839 16.28 -75.771 Q18.212 -77.703 20.973 -77.703 H43.375 Q43.375 -80.464 45.307 -82.396 Q47.239 -84.328 50 -84.328 H69.859 Q72.62 -84.328 74.552 -82.396 Q76.484 -80.464 76.484 -77.703 H99.027 Q101.788 -77.703 103.72 -75.771 Q105.653 -73.839 105.653 -71.078 Q105.653 -68.317 103.72 -66.385 Q101.788 -64.453 99.027 -64.453 V-1.078 Q99.027 4.46 95.171 8.316 Q91.315 12.172 85.777 12.172 H34.223 Z M43.728 -10.301 H55.353 V-55.301 H43.728 V-10.301 Z M64.647 -10.301 H76.272 V-55.301 H64.647 V-10.301 Z"/></g><g id="Medium-M" transform="matrix(1 0 0 1 1689.91 1126)"><path d="M34.671 10.786 Q29.948 10.786 26.622 7.46 Q23.296 4.134 23.296 -0.589 V-64.901 Q20.902 -64.901 19.255 -66.548 Q17.609 -68.195 17.609 -70.589 Q17.609 -72.983 19.255 -74.629 Q20.902 -76.276 23.296 -76.276 H44.312 Q44.312 -78.67 45.959 -80.317 Q47.606 -81.964 50 -81.964 H69.94 Q72.334 -81.964 73.981 -80.317 Q75.628 -78.67 75.628 -76.276 H96.704 Q99.098 -76.276 100.745 -74.629 Q102.391 -72.983 102.391 -70.589 Q102.391 -68.195 100.745 -66.548 Q99.098 -64.901 96.704 -64.901 V-0.589 Q96.704 4.134 93.378 7.46 Q90.052 10.786 85.329 10.786 H34.671 Z M44.462 -10.26 H55.15 V-55.26 H44.462 V-10.26 Z M64.85 -10.26 H75.538 V-55.26 H64.85 V-10.26 Z"/></g><g id="Regular-M" transform="matrix(1 0 0 1 1394.06 1126)"><path d="M35 9.77 Q30.875 9.77 27.938 6.833 Q25 3.895 25 -0.23 V-65.23 Q22.875 -65.23 21.438 -66.667 Q20 -68.105 20 -70.23 Q20 -72.355 21.438 -73.792 Q22.875 -75.23 25 -75.23 H45 Q45 -77.355 46.438 -78.792 Q47.875 -80.23 50 -80.23 H70 Q72.125 -80.23 73.562 -78.792 Q75 -77.355 75 -75.23 H95 Q97.125 -75.23 98.562 -73.792 Q100 -72.355 100 -70.23 Q100 -68.105 98.562 -66.667 Q97.125 -65.23 95 -65.23 V-0.23 Q95 3.895 92.062 6.833 Q89.125 9.77 85 9.77 H35 Z M45 -10.23 H55 V-55.23 H45 V-10.23 Z M65 -10.23 H75 V-55.23 H65 V-10.23 Z"/></g><g id="Light-M" transform="matrix(1 0 0 1 1098.18 1126)"><path d="M36.539 7.27 Q32.81 7.27 30.155 4.615 Q27.5 1.96 27.5 -1.769 V-65.23 H26.25 Q24.656 -65.23 23.578 -66.309 Q22.5 -67.387 22.5 -68.982 Q22.5 -70.576 23.578 -71.653 Q24.656 -72.73 26.25 -72.73 H45 Q45 -74.566 46.293 -75.86 Q47.587 -77.153 49.423 -77.153 H70.577 Q72.413 -77.153 73.707 -75.86 Q75 -74.566 75 -72.73 H93.75 Q95.344 -72.73 96.422 -71.651 Q97.5 -70.573 97.5 -68.978 Q97.5 -67.384 96.422 -66.307 Q95.344 -65.23 93.75 -65.23 H92.5 V-1.769 Q92.5 1.96 89.845 4.615 Q87.19 7.27 83.461 7.27 H36.539 Z M47.019 -10.23 H54.519 V-55.23 H47.019 V-10.23 Z M65.481 -10.23 H72.981 V-55.23 H65.481 V-10.23 Z"/></g><g id="Thin-M" transform="matrix(1 0 0 1 802.565 1126)"><path d="M38.077 4.77 Q34.745 4.77 32.373 2.397 Q30 0.025 30 -3.307 V-65.23 H27.5 Q26.438 -65.23 25.719 -65.95 Q25 -66.669 25 -67.733 Q25 -68.797 25.719 -69.514 Q26.438 -70.23 27.5 -70.23 H45 Q45 -71.778 46.149 -72.927 Q47.298 -74.076 48.846 -74.076 H71.154 Q72.702 -74.076 73.851 -72.927 Q75 -71.778 75 -70.23 H92.5 Q93.562 -70.23 94.281 -69.51 Q95 -68.791 95 -67.727 Q95 -66.663 94.281 -65.946 Q93.562 -65.23 92.5 -65.23 H90 V-3.307 Q90 0.025 87.627 2.397 Q85.255 4.77 81.923 4.77 H38.077 Z M49.038 -10.23 H54.038 V-55.23 H49.038 V-10.23 Z M65.962 -10.23 H70.962 V-55.23 H65.962 V-10.23 Z"/></g><g id="Ultralight-M" transform="matrix(1 0 0 1 506.415 1126)"><path d="M39 3.27 Q35.906 3.27 33.703 1.067 Q31.5 -1.136 31.5 -4.23 V-65.23 H28.25 Q27.506 -65.23 27.003 -65.734 Q26.5 -66.239 26.5 -66.984 Q26.5 -67.73 27.003 -68.23 Q27.506 -68.73 28.25 -68.73 H45 Q45 -70.105 46.062 -71.167 Q47.125 -72.23 48.5 -72.23 H71.5 Q72.875 -72.23 73.938 -71.167 Q75 -70.105 75 -68.73 H91.75 Q92.494 -68.73 92.997 -68.226 Q93.5 -67.721 93.5 -66.976 Q93.5 -66.23 92.997 -65.73 Q92.494 -65.23 91.75 -65.23 H88.5 V-4.23 Q88.5 -1.136 86.297 1.067 Q84.094 3.27 81 3.27 H39 Z M50.25 -10.23 H53.75 V-55.23 H50.25 V-10.23 Z M66.25 -10.23 H69.75 V-55.23 H66.25 V-10.23 Z"/></g><g id="Bold-S" transform="matrix(1 0 0 1 2294.23 696)"><path d="M29.686 1.261 Q24.784 1.261 21.416 -2.107 Q18.048 -5.475 18.048 -10.376 V-55.448 H16.865 Q14.468 -55.448 12.757 -57.153 Q11.046 -58.858 11.046 -61.246 Q11.046 -63.634 12.757 -65.36 Q14.468 -67.086 16.865 -67.086 H35.604 V-68.269 Q35.604 -70.666 37.315 -72.377 Q39.026 -74.088 41.422 -74.088 H53.06 Q55.457 -74.088 57.168 -72.377 Q58.879 -70.666 58.879 -68.269 V-67.086 H77.815 Q80.212 -67.086 81.923 -65.381 Q83.634 -63.676 83.634 -61.288 Q83.634 -58.9 81.923 -57.174 Q80.212 -55.448 77.815 -55.448 H76.632 V-10.419 Q76.632 -5.445 73.264 -2.092 Q69.896 1.261 64.994 1.261 H29.686 Z M36.097 -16.393 H45.466 V-49.531 H36.097 V-16.393 Z M49.214 -16.393 H58.583 V-49.531 H49.214 V-16.393 Z"/></g><g id="Semibold-S" transform="matrix(1 0 0 1 1998.1 696)"><path d="M30.158 -0.197 Q26.114 -0.197 23.303 -3.007 Q20.492 -5.818 20.492 -9.862 V-55.92 H19.309 Q17.298 -55.92 15.887 -57.325 Q14.476 -58.73 14.476 -60.732 Q14.476 -62.734 15.887 -64.159 Q17.298 -65.585 19.309 -65.585 H36.59 V-66.769 Q36.59 -68.779 38.001 -70.19 Q39.412 -71.601 41.422 -71.601 H53.146 Q55.157 -71.601 56.568 -70.19 Q57.979 -68.779 57.979 -66.769 V-65.585 H75.371 Q77.382 -65.585 78.793 -64.18 Q80.204 -62.775 80.204 -60.773 Q80.204 -58.771 78.793 -57.346 Q77.382 -55.92 75.371 -55.92 H74.188 V-9.905 Q74.188 -5.788 71.377 -2.992 Q68.566 -0.197 64.522 -0.197 H30.158 Z M36.869 -16.35 H45.252 V-49.488 H36.869 V-16.35 Z M49.428 -16.35 H57.811 V-49.488 H49.428 V-16.35 Z"/></g><g id="Medium-S" transform="matrix(1 0 0 1 1701.85 696)"><path d="M30.512 -1.29 Q27.111 -1.29 24.718 -3.683 Q22.326 -6.075 22.326 -9.476 V-56.274 H21.142 Q19.421 -56.274 18.235 -57.453 Q17.049 -58.633 17.049 -60.346 Q17.049 -62.058 18.235 -63.259 Q19.421 -64.459 21.142 -64.459 H37.33 V-65.643 Q37.33 -67.364 38.515 -68.55 Q39.701 -69.736 41.422 -69.736 H53.21 Q54.932 -69.736 56.117 -68.55 Q57.303 -67.364 57.303 -65.643 V-64.459 H73.538 Q75.259 -64.459 76.445 -63.28 Q77.631 -62.1 77.631 -60.387 Q77.631 -58.675 76.445 -57.474 Q75.259 -56.274 73.538 -56.274 H72.354 V-9.519 Q72.354 -6.046 69.962 -3.668 Q67.569 -1.29 64.168 -1.29 H30.512 Z M37.448 -16.318 H45.091 V-49.456 H37.448 V-16.318 Z M49.589 -16.318 H57.232 V-49.456 H49.589 V-16.318 Z"/></g><g id="Regular-S" transform="matrix(1 0 0 1 1405.73 696)"><path d="M30.771 -2.092 Q27.842 -2.092 25.756 -4.178 Q23.67 -6.264 23.67 -9.193 V-56.533 H22.486 Q20.978 -56.533 19.957 -57.548 Q18.936 -58.563 18.936 -60.063 Q18.936 -61.563 19.957 -62.598 Q20.978 -63.634 22.486 -63.634 H37.872 V-64.817 Q37.872 -66.326 38.893 -67.347 Q39.914 -68.368 41.422 -68.368 H53.258 Q54.766 -68.368 55.787 -67.347 Q56.808 -66.326 56.808 -64.817 V-63.634 H72.194 Q73.702 -63.634 74.723 -62.619 Q75.744 -61.604 75.744 -60.104 Q75.744 -58.604 74.723 -57.569 Q73.702 -56.533 72.194 -56.533 H71.01 V-9.236 Q71.01 -6.234 68.924 -4.163 Q66.838 -2.092 63.909 -2.092 H30.771 Z M37.872 -16.294 H44.973 V-49.432 H37.872 V-16.294 Z M49.707 -16.294 H56.808 V-49.432 H49.707 V-16.294 Z"/></g><g id="Light-S" transform="matrix(1 0 0 1 1109.75 696)"><path d="M31.985 -4.065 Q29.369 -4.065 27.506 -5.928 Q25.643 -7.791 25.643 -10.407 V-56.533 H23.473 Q22.383 -56.533 21.646 -57.265 Q20.909 -57.996 20.909 -59.078 Q20.909 -60.159 21.646 -60.91 Q22.383 -61.661 23.473 -61.661 H37.872 V-62.845 Q37.872 -64.126 38.779 -65.033 Q39.686 -65.94 40.967 -65.94 H53.713 Q54.994 -65.94 55.901 -65.033 Q56.808 -64.126 56.808 -62.845 V-61.661 H71.207 Q72.297 -61.661 73.034 -60.93 Q73.771 -60.198 73.771 -59.117 Q73.771 -58.035 73.034 -57.284 Q72.297 -56.533 71.207 -56.533 H69.037 V-10.45 Q69.037 -7.761 67.174 -5.913 Q65.311 -4.065 62.695 -4.065 H31.985 Z M39.465 -16.294 H44.594 V-49.432 H39.465 V-16.294 Z M50.086 -16.294 H55.215 V-49.432 H50.086 V-16.294 Z"/></g><g id="Thin-S" transform="matrix(1 0 0 1 814.015 696)"><path d="M33.199 -6.037 Q30.895 -6.037 29.255 -7.677 Q27.615 -9.317 27.615 -11.621 V-56.533 H24.459 Q23.788 -56.533 23.335 -56.981 Q22.881 -57.43 22.881 -58.093 Q22.881 -58.756 23.335 -59.222 Q23.788 -59.689 24.459 -59.689 H37.872 V-60.872 Q37.872 -61.926 38.665 -62.719 Q39.458 -63.513 40.512 -63.513 H54.168 Q55.222 -63.513 56.015 -62.719 Q56.808 -61.926 56.808 -60.872 V-59.689 H70.221 Q70.892 -59.689 71.345 -59.241 Q71.799 -58.792 71.799 -58.129 Q71.799 -57.466 71.345 -57 Q70.892 -56.533 70.221 -56.533 H67.065 V-11.663 Q67.065 -9.288 65.425 -7.662 Q63.785 -6.037 61.481 -6.037 H33.199 Z M41.058 -16.294 H44.214 V-49.432 H41.058 V-16.294 Z M50.466 -16.294 H53.622 V-49.432 H50.466 V-16.294 Z"/></g><g id="Ultralight-S" transform="matrix(1 0 0 1 517.792 696)"><path d="M33.927 -7.22 Q31.811 -7.22 30.305 -8.727 Q28.799 -10.233 28.799 -12.349 V-56.533 H25.051 Q24.632 -56.533 24.348 -56.812 Q24.065 -57.09 24.065 -57.502 Q24.065 -57.914 24.348 -58.21 Q24.632 -58.505 25.051 -58.505 H37.872 V-59.689 Q37.872 -60.606 38.597 -61.331 Q39.322 -62.056 40.239 -62.056 H54.441 Q55.358 -62.056 56.083 -61.331 Q56.808 -60.606 56.808 -59.689 V-58.505 H69.629 Q70.048 -58.505 70.332 -58.227 Q70.615 -57.948 70.615 -57.537 Q70.615 -57.125 70.332 -56.829 Q70.048 -56.533 69.629 -56.533 H65.882 V-12.392 Q65.882 -10.204 64.375 -8.712 Q62.869 -7.22 60.753 -7.22 H33.927 Z M42.014 -16.294 H43.987 V-49.432 H42.014 V-16.294 Z M50.693 -16.294 H52.666 V-49.432 H50.693 V-16.294 Z"/></g></g></svg>